<?xml version="1.0" standalone="no"?>
<!DOCTYPE svg PUBLIC "-//W3C//DTD SVG 20010904//EN"
 "http://www.w3.org/TR/2001/REC-SVG-20010904/DTD/svg10.dtd">
<svg version="1.0" xmlns="http://www.w3.org/2000/svg"
 width="1051.000000pt" height="1025.000000pt" viewBox="0 0 1051.000000 1025.000000"
 preserveAspectRatio="xMidYMid meet">

<g transform="translate(0.000000,1025.000000) scale(0.100000,-0.100000)"
fill="#000000" stroke="none">
<path d="M1632 10234 c-400 -48 -763 -222 -1056 -504 -299 -288 -472 -615
-554 -1045 -15 -83 -17 -336 -20 -3485 -2 -2393 0 -3429 8 -3510 28 -301 131
-597 290 -840 79 -119 121 -172 229 -283 250 -258 537 -423 891 -513 225 -56
50 -54 3831 -54 2362 0 3510 3 3580 11 448 45 836 233 1150 556 108 111 150
164 229 283 156 238 259 534 289 830 15 142 15 6748 0 6890 -79 771 -621 1414
-1360 1614 -52 14 -137 33 -189 43 -90 17 -300 18 -3650 19 -2964 2 -3574 0
-3668 -12z m2414 -2604 c610 -49 1055 -261 1340 -639 180 -239 284 -578 284
-926 0 -351 -81 -647 -247 -898 -70 -106 -278 -310 -393 -386 -177 -116 -361
-191 -600 -244 -238 -53 -326 -61 -735 -62 l-380 -2 -3 -718 c-1 -510 -5 -722
-13 -732 -17 -20 -901 -19 -918 1 -8 10 -10 617 -9 2297 l3 2284 125 7 c369
22 1350 33 1546 18z m3951 -1104 c225 -30 427 -85 481 -131 l27 -23 3 -374 c2
-228 -1 -384 -7 -400 -16 -43 -54 -42 -156 4 -122 55 -205 83 -340 113 -430
96 -806 77 -897 -46 -75 -101 -60 -201 45 -295 60 -54 310 -180 477 -240 217
-78 470 -203 635 -315 219 -148 348 -336 401 -584 18 -85 21 -304 5 -395 -78
-441 -416 -760 -920 -870 -311 -68 -729 -68 -1096 0 -202 38 -432 115 -482
162 l-23 21 0 412 c0 294 3 414 11 422 9 9 44 -4 139 -52 291 -146 626 -225
953 -225 155 0 241 11 325 40 106 38 163 106 164 199 1 134 -123 229 -472 366
-421 164 -643 288 -813 454 -154 149 -244 309 -282 500 -23 114 -16 342 13
454 82 302 286 541 585 682 146 69 282 108 477 135 103 14 606 5 747 -14z"/>
<path d="M3320 6040 l0 -739 35 -7 c19 -3 160 -4 313 -1 306 5 384 16 574 81
124 42 191 83 289 175 137 127 189 265 189 502 0 222 -55 366 -189 499 -85 85
-167 133 -299 174 -157 49 -228 56 -583 56 l-329 0 0 -740z"/>
</g>
</svg>
